<svg width="58" height="98" viewBox="0 0 58 98" fill="none" xmlns="http://www.w3.org/2000/svg">
<path d="M45.5779 46.1676C45.5779 46.1676 51.3629 35.8935 42.5088 0C42.5088 0 45.6981 26.8028 41.4457 40.0257C41.4457 40.0257 30.8185 44.8679 18.6586 30.225C18.6586 30.225 30.8185 49.4696 45.5779 46.1639V46.1676Z" fill="#E8F6F1"/>
<path d="M53.0157 38.8466C55.4274 38.8466 57.3846 36.8894 57.3846 34.4777C57.3846 32.066 55.4274 30.1089 53.0157 30.1089C50.6041 30.1089 48.6469 32.066 48.6469 34.4777C48.6469 36.8894 50.6041 38.8466 53.0157 38.8466Z" fill="#E8F6F1"/>
<path d="M2.95262 76.1558C2.95262 76.1558 22.9073 79.5818 38.0197 63.8757C29.7554 76.0356 17.1222 90.0887 0 98C0 98 45.6943 83.7139 50.2998 41.7949C50.2998 41.7949 39.3195 66.9448 2.95262 76.1558Z" fill="#E8F6F1"/>
</svg>
